<svg xmlns="http://www.w3.org/2000/svg" width="148.133" height="50" viewBox="0 0 148.133 50">
  <g id="Grupo_7976" data-name="Grupo 7976" transform="translate(-384.1 -15)">
    <g id="Grupo_5180" data-name="Grupo 5180" transform="translate(384.099 15)">
      <rect id="Rectángulo_618" data-name="Rectángulo 618" width="31.492" height="31.492" transform="translate(2.347 2.686)" fill="#fff"/>
      <path id="Trazado_2" data-name="Trazado 2" d="M-710-710l-13.636-50H-760v36.364Zm-20.541-21.3h-5.851v-12.08l-5.426,8.234h-.121l-5.4-8.174v12.02h-5.76v-21.035h6.215l5.063,8.144,5.063-8.144h6.215Z" transform="translate(760 760)" fill="#00a9df"/>
    </g>
    <path id="Trazado_6074" data-name="Trazado 6074" d="M4.687,4.423V-7.6c0-3.41-1.826-5.029-4.892-5.029A7.061,7.061,0,0,0-5.923-9.6c-.62-1.895-2.17-3.031-4.616-3.031a7.278,7.278,0,0,0-5.443,2.584v-2.17h-4.375V4.423h4.375v-11.2a4.465,4.465,0,0,1,3.445-1.963c1.791,0,2.48,1.1,2.48,2.652V4.423h4.409V-6.807A4.417,4.417,0,0,1-2.2-8.736c1.791,0,2.48,1.1,2.48,2.652V4.423Zm18.67,0V-6.325c0-4.788-3.479-6.3-7.268-6.3a10.914,10.914,0,0,0-7.268,2.618l1.653,2.928a7,7,0,0,1,4.857-1.963c2.2,0,3.651,1.1,3.651,2.79v2.239a6.844,6.844,0,0,0-5.27-2.032c-2.652,0-5.787,1.481-5.787,5.374a5.543,5.543,0,0,0,5.787,5.512A6.885,6.885,0,0,0,18.983,2.7V4.423ZM15.469,1.874c-1.722,0-3.135-.9-3.135-2.446,0-1.619,1.412-2.515,3.135-2.515A4.376,4.376,0,0,1,18.983-1.64V.427a4.376,4.376,0,0,1-3.514,1.447M37.206,4.836c4.271,0,7.372-3.2,7.372-8.75s-3.1-8.715-7.372-8.715a6.427,6.427,0,0,0-5.133,2.515v-2.1H27.7V10.761h4.375V2.287a6.357,6.357,0,0,0,5.133,2.549M35.828.944A5.01,5.01,0,0,1,32.073-.951V-6.841a4.9,4.9,0,0,1,3.755-1.895c2.515,0,4.2,1.963,4.2,4.823,0,2.894-1.688,4.857-4.2,4.857M49.95-14.006a2.617,2.617,0,0,0,2.618-2.618,2.588,2.588,0,0,0-2.618-2.584,2.61,2.61,0,0,0-2.618,2.584,2.639,2.639,0,0,0,2.618,2.618m2.2,1.791H47.78V4.423h4.375Zm0,16.638,9.921.413a5.4,5.4,0,0,0,3.651-1.068L64.8.461a2.39,2.39,0,0,1-1.516.482c-.965,0-1.516-.792-1.516-1.826v-7.51h3.376v-3.824H61.765v-4.547H57.356v4.547H54.6v3.824h2.756V.289c0,2.962,1.653,4.547,4.719,4.547" transform="translate(466.506 44.208)" fill="#00a9e0"/>
  </g>
</svg>
